<?xml version="1.0" standalone="no"?>
<!DOCTYPE svg PUBLIC "-//W3C//DTD SVG 1.0//EN" "http://www.w3.org/TR/2001/REC-SVG-20010904/DTD/svg10.dtd">
<svg xmlns="http://www.w3.org/2000/svg" xmlns:xlink="http://www.w3.org/1999/xlink" id="body_1" width="56" height="56">

<g transform="matrix(0.093333334 0 0 0.093333334 0 0)">
	<g transform="matrix(1 0 0 1 0 0)">
	</g>
    <path transform="matrix(1 0 0 1 0 0)"  d="M307.031 292.969L292.969 292.969L292.969 307.031L307.031 307.031L307.031 292.969z" stroke="none" fill="#FFFFFF" fill-rule="nonzero" />
	<g transform="matrix(1 0 0 1 0 0)">
	</g>
    <path transform="matrix(1 0 0 1 0 0)"  d="M600 0L0 0L0 600L600 600L600 0z" stroke="none" fill="#FFFFFF" fill-rule="nonzero" />
	<g transform="matrix(1 0 0 1 0 0)">
	</g>
    <path transform="matrix(1 0 0 1 0 0)"  d="M600 0L0 0L0 600L600 600L600 0z" stroke="none" fill="#0056D2" fill-rule="nonzero" />
	<g transform="matrix(1 0 0 1 0 0)">
	</g>
    <path transform="matrix(1 0 0 1 0 0)"  d="M117.913 300.434C 117.913 281.133 133.836 265.559 153.772 265.559C 173.84201 265.559 189.764 281.133 189.764 300.434C 189.764 319.60098 173.84201 335.44098 153.772 335.44098C 133.836 335.44098 117.913 319.468 117.913 300.434zM172.638 300.434C 172.638 290.85098 164.20801 282.33 153.772 282.33C 143.46901 282.33 135.17401 290.85098 135.17401 300.434C 135.17401 310.151 143.60301 318.66998 153.772 318.66998C 164.20801 318.66998 172.638 310.15097 172.638 300.434z" stroke="none" fill="#FFFFFF" fill-rule="nonzero" />
	<g transform="matrix(1 0 0 1 0 0)">
	</g>
    <path transform="matrix(1 0 0 1 0 0)"  d="M478.15 300.965C 478.15 279.801 495.47598 265.559 511.186 265.559C 521.933 265.559 528.11 268.753 532.27203 275.011L532.27203 275.011L533.88403 266.758L550.00006 266.758L550.00006 334.111L533.88403 334.111L531.869 327.188C 527.168 332.24698 521.25903 335.44098 511.32303 335.44098C 495.61002 335.44098 478.15002 321.86398 478.15002 300.96497L478.15002 300.96497L478.15 300.965zM532.945 300.832C 532.945 290.585 524.482 282.33 514.00903 282.33C 503.66803 282.33 495.34103 290.718 495.34103 301.10098C 495.34103 310.417 503.80203 318.80298 514.00903 318.80298C 524.616 318.66998 532.945 310.28397 532.945 300.83197z" stroke="none" fill="#FFFFFF" fill-rule="nonzero" />
	<g transform="matrix(1 0 0 1 0 0)">
	</g>
    <path transform="matrix(1 0 0 1 0 0)"  d="M458.833 274.982L458.833 267.261L441.732 267.261L441.732 333.472L458.833 333.472L458.833 297.748C 458.833 287.01898 464.05402 281.392 473.32 281.392C 473.97202 281.392 474.496 281.392 475.017 281.523L475.017 281.523L478.15 265.55902C 469.275 265.69003 462.878 268.69904 458.833 274.98203L458.833 274.98203L458.833 274.982z" stroke="none" fill="#FFFFFF" fill-rule="nonzero" />
	<g transform="matrix(1 0 0 1 0 0)">
	</g>
    <path transform="matrix(1 0 0 1 0 0)"  d="M284.158 274.982L284.158 267.261L266.535 267.261L266.67 333.472L284.295 333.472L284.15802 297.748C 284.15802 287.01898 289.54 281.392 298.959 281.392C 299.631 281.392 300.16803 281.392 300.709 281.523L300.709 281.523L303.937 265.55902C 294.78702 265.69003 288.196 268.69904 284.15802 274.98203L284.15802 274.98203L284.158 274.982z" stroke="none" fill="#FFFFFF" fill-rule="nonzero" />
	<g transform="matrix(1 0 0 1 0 0)">
	</g>
    <path transform="matrix(1 0 0 1 0 0)"  d="M196.654 307.776L196.654 266.543L213.863 266.543L213.863 305.647C 213.863 314.292 218.593 319.346 226.869 319.346C 236.065 319.346 241.452 313.62802 241.452 302.72202L241.452 302.72202L241.452 266.54303L258.661 266.54303L258.661 333.84302L241.45201 333.84302L241.45201 325.99802C 237.37901 332.381 230.811 335.44 221.74602 335.44C 206.24402 335.573 196.65402 324.268 196.65402 307.776L196.65402 307.776L196.654 307.776z" stroke="none" fill="#FFFFFF" fill-rule="nonzero" />
	<g transform="matrix(1 0 0 1 0 0)">
	</g>
    <path transform="matrix(1 0 0 1 0 0)"  d="M365.945 300.369C 365.945 281.50198 379.566 265.427 400.93 265.56C 420.823 265.56 434.843 281.50198 434.843 300.101C 434.843 301.962 434.70898 303.95502 434.442 305.683L434.442 305.683L383.037 305.55002C 385.041 313.65402 391.715 319.36603 401.72998 319.49902C 407.87097 319.49902 414.41498 317.24002 418.41998 312.191L418.41998 312.191L430.305 321.758C 424.16098 330.392 413.346 335.441 401.86398 335.441C 381.567 335.176 365.94498 320.03 365.94498 300.36902L365.94498 300.36902L365.945 300.369zM417.353 293.46C 416.416 286.68298 409.208 281.369 400.93 281.369C 392.785 281.369 386.241 286.15198 383.70398 293.327z" stroke="none" fill="#FFFFFF" fill-rule="nonzero" />
	<g transform="matrix(1 0 0 1 0 0)">
	</g>
    <path transform="matrix(1 0 0 1 0 0)"  d="M303.937 319.559L319.459 311.486C 322.001 317.044 327.21902 320.22 334.44302 320.22C 341.13403 320.22 343.67703 318.102 343.67703 315.191C 343.67703 304.47 306.74704 310.957 306.74704 286.338C 306.74704 272.707 318.79004 265.55902 333.64105 265.55902C 344.88007 265.55902 354.91504 270.45602 360.40106 279.72202L360.40106 279.72202L345.01306 287.795C 342.74106 283.295 338.45807 280.78 332.97205 280.78C 327.62006 280.78 325.07803 282.634 325.07803 285.677C 325.07803 296.133 362.00803 289.514 362.00803 314.53C 362.00803 327.5 351.30402 335.441 334.04202 335.441C 319.325 335.30902 309.02203 330.544 303.937 319.55902L303.937 319.55902L303.937 319.559z" stroke="none" fill="#FFFFFF" fill-rule="nonzero" />
	<g transform="matrix(1 0 0 1 0 0)">
	</g>
    <path transform="matrix(1 0 0 1 0 0)"  d="M50 300.074C 50 280.913 65.7897 265.55902 85.5599 265.55902C 98.2976 265.55902 109.311 271.86002 115.68 281.30603L115.68 281.30603L100.819 289.83804C 97.3687 285.11404 91.9288 281.96506 85.5599 281.96506C 75.343 281.96506 67.1165 290.36307 67.1165 299.94305C 67.1165 309.52106 75.4755 317.91907 85.5599 317.91907C 92.1941 317.91907 98.032295 314.50806 101.216995 309.39008L101.216995 309.39008L115.94499 318.05008C 109.70899 327.89307 98.43019 334.4561 85.55989 334.4561C 65.78969 334.5871 49.999992 318.8401 49.999992 300.0741L49.999992 300.0741L50 300.074z" stroke="none" fill="#FFFFFF" fill-rule="nonzero" />
</g>
</svg>