<?xml version="1.0" standalone="no"?>
<!DOCTYPE svg PUBLIC "-//W3C//DTD SVG 20010904//EN"
 "http://www.w3.org/TR/2001/REC-SVG-20010904/DTD/svg10.dtd">
<svg version="1.0" xmlns="http://www.w3.org/2000/svg"
 width="163.000000pt" height="48.000000pt" viewBox="0 0 163.000000 48.000000"
 preserveAspectRatio="xMidYMid meet">

<g transform="translate(0.000000,48.000000) scale(0.100000,-0.100000)"
fill="#000000" stroke="none">
<path d="M201 461 c-10 -7 -11 -13 -2 -30 10 -18 15 -19 33 -10 11 6 37 8 58
5 46 -7 75 16 41 33 -24 13 -110 14 -130 2z"/>
<path d="M261 383 c8 -10 25 -27 39 -39 21 -19 23 -26 15 -50 -8 -23 -17 -30
-43 -32 -29 -3 -35 0 -45 27 -6 17 -15 31 -19 31 -4 0 -8 10 -8 23 0 18 -2 19
-10 7 -35 -55 15 -130 86 -130 37 0 84 51 84 90 0 40 -47 90 -85 90 -25 0 -26
-2 -14 -17z"/>
<path d="M2 308 c3 -75 5 -83 23 -83 13 0 21 8 23 23 5 31 39 29 54 -3 7 -16
19 -25 35 -25 27 0 29 7 6 39 -13 19 -14 28 -5 42 34 54 3 89 -79 89 l-60 0 3
-82z m102 36 c8 -20 -10 -44 -34 -44 -23 0 -28 7 -22 35 5 29 46 35 56 9z"/>
<path d="M407 323 c-14 -38 -29 -76 -33 -85 -9 -26 32 -24 46 2 7 14 21 20 43
20 21 0 36 -7 45 -20 11 -19 57 -29 50 -12 -1 5 -16 43 -33 85 -28 73 -31 77
-61 77 -29 0 -32 -4 -57 -67z m59 -34 c-26 -7 -30 1 -15 37 l11 29 12 -30 c12
-27 11 -30 -8 -36z"/>
<path d="M580 310 c0 -92 4 -96 76 -85 59 8 84 34 84 84 0 55 -34 81 -106 81
l-54 0 0 -80z m114 17 c13 -37 -2 -61 -43 -65 l-31 -3 0 51 0 51 32 -3 c25 -2
35 -9 42 -31z"/>
<path d="M780 371 c-18 -34 -12 -109 10 -131 25 -25 120 -29 120 -6 0 10 -14
16 -42 18 -31 2 -44 8 -46 21 -3 14 4 17 37 17 30 0 41 4 41 15 0 11 -11 15
-40 15 -33 0 -40 3 -40 20 0 17 7 20 45 20 33 0 45 4 45 15 0 12 -13 15 -60
15 -48 0 -61 -4 -70 -19z"/>
<path d="M951 376 c-7 -9 -11 -41 -9 -83 3 -60 5 -68 23 -68 15 0 19 7 20 30
0 27 3 30 38 33 54 5 51 32 -4 32 -33 0 -40 3 -37 18 2 12 15 18 46 20 28 2
42 8 42 18 0 20 -103 20 -119 0z"/>
<path d="M1110 371 c-5 -11 -10 -40 -10 -65 0 -64 25 -88 87 -84 61 4 69 26
11 30 -31 2 -44 8 -46 21 -3 14 4 17 37 17 30 0 41 4 41 15 0 11 -11 15 -40
15 -33 0 -40 3 -40 19 0 16 8 20 42 23 69 5 60 28 -11 28 -49 0 -62 -3 -71
-19z"/>
<path d="M1272 308 c3 -70 6 -83 21 -86 14 -3 17 5 17 50 l0 53 46 -52 c65
-75 74 -71 74 32 0 69 -3 85 -15 85 -11 0 -15 -12 -15 -45 0 -25 -4 -45 -8
-45 -5 0 -23 20 -42 45 -23 31 -41 45 -57 45 -23 0 -24 -2 -21 -82z"/>
<path d="M1470 305 l0 -85 29 0 c88 0 131 30 131 90 0 54 -34 80 -106 80 l-54
0 0 -85z m104 39 c32 -32 11 -84 -34 -84 -29 0 -30 1 -30 50 0 46 2 50 24 50
14 0 32 -7 40 -16z"/>
<path d="M244 319 c-8 -14 21 -43 35 -35 19 12 13 46 -8 46 -11 0 -23 -5 -27
-11z"/>
<path d="M405 144 c-9 -14 -14 -28 -11 -32 7 -6 56 37 56 50 0 18 -29 6 -45
-18z"/>
<path d="M835 160 c-3 -5 3 -10 14 -10 12 0 21 5 21 10 0 6 -6 10 -14 10 -8 0
-18 -4 -21 -10z"/>
<path d="M1060 155 c10 -12 10 -15 -4 -15 -9 0 -16 -8 -16 -20 0 -11 5 -20 10
-20 6 0 10 -14 10 -31 0 -35 23 -36 28 -1 3 18 10 22 38 22 30 0 34 -3 34 -25
0 -16 6 -25 15 -25 10 0 15 10 15 30 0 17 5 30 10 30 15 0 12 30 -4 36 -8 3
-12 12 -9 20 7 19 -11 18 -28 -2 -11 -14 -13 -14 -21 0 -5 9 -16 16 -25 16
-13 0 -13 -3 -3 -15 10 -12 10 -15 -3 -15 -8 0 -17 7 -21 15 -3 8 -13 15 -22
15 -13 0 -14 -3 -4 -15z m98 -42 c-15 -2 -42 -2 -60 0 -18 2 -6 4 27 4 33 0
48 -2 33 -4z"/>
<path d="M460 151 c0 -5 12 -11 28 -13 l27 -3 -32 -18 c-38 -20 -46 -57 -13
-57 11 0 20 -7 20 -15 0 -8 -9 -15 -19 -15 -11 0 -23 -4 -26 -10 -4 -6 18 -10
59 -10 37 0 66 4 66 10 0 6 -11 10 -25 10 -16 0 -25 6 -25 15 0 8 9 15 19 15
20 0 35 25 25 41 -3 5 -13 9 -22 9 -12 0 -13 3 -4 12 25 25 13 38 -33 38 -25
0 -45 -4 -45 -9z m85 -61 c15 -6 7 -9 -30 -9 -36 -1 -46 2 -35 9 18 12 38 12
65 0z"/>
<path d="M620 150 c0 -5 11 -10 25 -10 24 0 25 -3 25 -55 0 -54 0 -55 -30 -55
-16 0 -30 -4 -30 -10 0 -6 37 -10 90 -10 53 0 90 4 90 10 0 6 -20 10 -45 10
l-45 0 0 56 c0 52 1 55 22 52 20 -3 23 -8 20 -40 -3 -29 0 -38 12 -38 12 0 16
11 16 50 l0 50 -75 0 c-43 0 -75 -4 -75 -10z"/>
<path d="M890 116 c0 -55 18 -71 22 -19 3 33 6 38 28 38 22 0 25 -5 28 -37 5
-56 24 -46 20 10 l-3 47 -47 3 -48 3 0 -45z"/>
<path d="M824 128 c-3 -4 3 -11 11 -16 15 -8 15 -10 1 -21 -18 -15 -21 -41 -6
-41 6 0 10 -11 10 -25 0 -32 30 -34 31 -2 0 12 3 42 5 67 4 43 3 45 -22 45
-14 0 -28 -3 -30 -7z"/>
<path d="M930 96 c0 -25 -7 -40 -25 -54 -35 -27 -33 -50 1 -27 25 16 28 16 36
1 12 -21 58 -21 58 -1 0 8 -9 15 -20 15 -16 0 -21 9 -26 50 -7 57 -24 68 -24
16z"/>
<path d="M408 95 c-20 -26 -24 -50 -8 -40 6 4 10 -7 10 -24 0 -17 5 -31 10
-31 11 0 14 19 11 62 -1 14 3 29 8 33 15 9 14 25 -1 25 -7 0 -21 -11 -30 -25z"/>
<path d="M1105 58 c-6 -12 -21 -25 -34 -28 -26 -6 -42 -30 -19 -30 7 0 25 6
40 14 23 12 29 12 39 0 13 -16 79 -19 79 -4 0 6 -13 10 -29 10 -24 0 -30 5
-34 30 -8 35 -28 39 -42 8z"/>
</g>
</svg>
