<?xml version="1.0" standalone="no"?>
<!DOCTYPE svg PUBLIC "-//W3C//DTD SVG 1.0//EN" "http://www.w3.org/TR/2001/REC-SVG-20010904/DTD/svg10.dtd">
<svg xmlns="http://www.w3.org/2000/svg" xmlns:xlink="http://www.w3.org/1999/xlink" id="body_1" width="56" height="56">

<g transform="matrix(0.0224 0 0 0.0224 0 0)">
	<g transform="matrix(62.5 0 0 62.5 0 0)">
	</g>
    <path transform="matrix(62.5 0 0 62.5 0 0)"  d="M13.3 0L0 7.7L0 25.3C 0 33.4 6.5 40 14.6 40C 17.300001 40 19.8 39.3 22 38.1L22 38.1L32.8 31.899998C 37.1 29.6 40 25.2 40 20L40 20L40 1.6L37.4 0.1L26 6.2L26 25.400002C 26 26.2 25.9 27.000002 25.8 27.800001C 25.599998 28.6 25.4 29.300001 25.099998 30.000002L25.099998 30.000002L24.8 30.600002C 24.4 30.600002 21.9 29.700003 20.599998 28.800003C 19.999998 28.400003 19.499998 28.000004 18.999998 27.500004C 18.499998 27.000004 18.099998 26.500004 17.699999 25.900003C 17.3 25.300003 16.999998 24.700003 16.699999 24.100004C 16.4 23.500004 16.199999 22.800005 16.099998 22.100004C 15.999998 21.400003 15.999998 20.700005 15.999998 20.000004L15.999998 20.000004L15.999998 1.6L13.3 0zM19.8 36.2C 19.099998 36.5 18.099998 36.9 17.3 37.100002C 16.5 37.300003 15.799999 37.300003 14.999999 37.300003C 14.199999 37.300003 13.399999 37.200005 12.599998 37.000004C 11.799998 36.800003 11.099998 36.600002 10.399999 36.300003C 9.699999 36.000004 8.999999 35.600002 8.399999 35.200005C 6.6 34.1 5.7 33.1 5 32C 4.6 31.4 4.2 30.7 3.9 30C 3.6000001 29.3 3.4 28.5 3.2 27.7C 3 26.900002 3 26.1 3 25.300001L3 25.300001L3 9.2L13 3.1L13 20C 13 26.4 17.7 31.8 23.7 33.1C 23.5 33.399998 23.300001 33.699997 23 33.899998C 21.9 34.999996 21 35.699997 19.8 36.199997zM36.8 22.2C 36.7 22.900002 36.399998 23.6 36.2 24.2C 35.9 24.800001 35.600002 25.400002 35.2 26C 34.8 26.6 33.600002 28.1 32 29C 30.4 29.9 28.9 30.2 28 30.4C 28.6 28.8 29 27.199999 29 25.4L29 25.4L29 7.7L37 3.1L37 20C 37 20.8 37 21.5 36.8 22.2z" stroke="none" fill="#02B3E4" fill-rule="nonzero" />
</g>
</svg>